<svg xmlns="http://www.w3.org/2000/svg" viewBox="0 0 128 128"><path fill="#399" d="M124.8 52.1c-4.3-2.5-10-2.8-14.8-1.4-.6-5.2-4-9.7-8-12.9l-1.6-1.3-1.4 1.6c-2.6 3-3.4 8.1-3 12 .3 2.9 1.2 5.9 3 8.3-1.4.8-2.9 1.9-4.3 2.4-2.8 1-5.9 2-8.9 2H.6l-.2 1.3c-.6 6.1.2 12.1 2.7 17.8l1 2.1.1.2c7 11.9 19.3 17 32.8 17 26.1 0 47.8-11.5 57.7-36.3 6.7.3 13.5-1.6 16.7-8l.8-1.7-1.4-.7zM47 45.6h-9.4v9.2H47zm11.2 0h-9.4v9.2h9.4zm11.3 0h-9.4v9.2H69.5zm-22.5-11h-9.4v9.2h9.4zm11.2 0h-9.4v9.2h9.4zm11.3 0h-9.4v9.2H69.5zm-22.5-11h-9.4v9.2h9.4zm11.2 0h-9.4v9.2h9.4zM36 45.6H26.6v9.2H36zm-11.3 11H15.4v9.2h9.4zm11.3 0H26.6v9.2H36zm11.2 0h-9.4v9.2H47zm11.2 0h-9.4v9.2h9.4zm11.3 0h-9.4v9.2H69.5z"/></svg>
