<svg xmlns="http://www.w3.org/2000/svg" viewBox="0 0 128 128"><path fill="#439934" d="M88.038 42.04c-5.495-24.279-18.741-31.869-20.164-34.895-.727-1.72-1.48-3.5-2.168-5.145C65.706 1.404 65.706 0 65.706 0c.013.107-.266 2.375-.266 2.375S63.637 8.07 57.544 14.582c-2.441 2.633-16.157 13.219-18.068 26.783-1.79 12.608 2.496 22.619 10.052 30.13-1.066.54-1.937 1.363-2.547 2.375-.611 1.012-.935 2.174-.937 3.36.127 1.783 1.017 4.166 1.017 4.166-.73-1.13-2.027-2.09-1.89-4.166.14-2.12 1.93-4.49 4.336-4.49s4.334 2.37 4.334 4.49v.12s5.498 2.5 12.28 2.5c4.127.025 8.19-1.09 11.66-3.225 0 0 1.477-3.074 2.396-5.076.23-.5.473-.958.734-1.377 7.22-7.452 11.298-16.965 10.22-27.91l-.096-.906zM65.006 75.72c0 .164-.535 2.45-1.203 4.787-3.127-1.5-6.36-5.015-6.36-5.015s1.94 4.09 5.79 6.63c-.24.734-.479 1.384-.604 1.854-.496 1.85-1.09 2.72-1.09 2.72s-.58-1.45-.58-2.96c0-1.47.318-2.37.318-2.37-3.98-2.094-6.626-5.615-7.67-8.24-1.04-2.63-.98-4.47-.98-4.47s2.16 3.34 5.51 6 6.12 3.53 6.12 3.53-1.79-1.38-3.49-3.8c-1.7-2.42-2.22-3.93-2.22-3.93s3.88 3.14 7.52 5.06c-.39.598-.574 1.295-.554 2 0 0 .11-.537.494-.805z"/></svg>
